<?xml version="1.0" standalone="no"?>
<!DOCTYPE svg PUBLIC "-//W3C//DTD SVG 20010904//EN"
 "http://www.w3.org/TR/2001/REC-SVG-20010904/DTD/svg10.dtd">
<svg version="1.0" xmlns="http://www.w3.org/2000/svg"
 width="400.000000pt" height="400.000000pt" viewBox="0 0 400.000000 400.000000"
 preserveAspectRatio="xMidYMid meet">
<metadata>
Created by potrace 1.11, written by Peter Selinger 2001-2013
</metadata>
<g transform="translate(0.000000,400.000000) scale(0.100000,-0.100000)"
fill="#000000" stroke="none">
<path d="M2294 3768 c3 -128 8 -386 11 -573 8 -483 15 -766 21 -797 3 -16 2
-28 -3 -28 -4 0 -28 -18 -52 -40 -25 -22 -41 -40 -36 -40 5 0 19 10 32 22 13
12 25 19 28 16 6 -6 -109 -98 -122 -98 -4 0 1 7 11 15 37 28 5 15 -40 -15 -24
-17 -44 -36 -44 -43 0 -7 4 -6 10 3 6 9 10 10 10 3 0 -17 -101 -95 -116 -89
-8 3 -16 0 -20 -6 -4 -7 -3 -8 4 -4 7 4 12 2 12 -3 0 -6 -4 -11 -9 -11 -5 0
-16 -6 -23 -13 -7 -7 -56 -46 -108 -87 -52 -41 -97 -77 -100 -80 -3 -3 -25
-21 -50 -40 -25 -19 -48 -38 -51 -43 -3 -4 -12 -5 -21 -2 -9 4 -32 -10 -59
-36 l-44 -41 44 36 c41 33 61 43 61 32 0 -3 -44 -39 -97 -81 -54 -41 -108 -85
-120 -96 -12 -11 -27 -18 -33 -14 -6 4 -9 2 -8 -4 2 -5 -28 -35 -65 -66 -95
-79 -106 -112 -56 -169 18 -21 27 -40 23 -47 -4 -7 -3 -9 4 -5 13 8 44 -22 36
-35 -3 -5 0 -8 8 -7 7 2 12 -3 10 -10 -1 -6 4 -11 10 -10 7 2 12 -3 10 -10 -1
-8 1 -11 6 -8 5 3 26 -12 45 -34 33 -35 35 -39 18 -45 -28 -9 -23 -55 6 -55
12 0 23 6 26 13 5 15 53 -8 61 -30 4 -9 1 -12 -7 -7 -6 4 -9 4 -5 -1 4 -4 17
-13 29 -19 24 -12 28 -28 8 -35 -8 -2 -10 2 -6 13 4 9 3 15 -2 11 -17 -10 -43
7 -38 26 3 10 -1 20 -8 23 -19 7 -45 -26 -45 -56 0 -28 -19 -41 -41 -27 -11 7
-10 11 6 24 19 14 18 15 -8 5 -35 -13 -40 -13 -32 0 3 6 0 10 -8 10 -10 0 -13
7 -10 21 4 14 12 19 24 16 12 -3 19 0 19 10 0 8 -7 13 -17 11 -10 -2 -27 4
-37 14 -22 20 -36 23 -36 8 0 -5 -8 -10 -17 -11 -14 0 -14 -2 4 -9 21 -9 40
-60 29 -79 -4 -5 3 -12 14 -16 22 -7 26 -20 10 -30 -16 -10 -12 -35 6 -35 8 0
13 -4 9 -9 -10 -18 14 -22 57 -11 41 12 43 11 70 -22 20 -24 28 -28 28 -15 0
18 17 22 39 8 12 -8 12 -12 -2 -26 -17 -16 -21 -28 -18 -52 1 -7 -3 -13 -9
-13 -5 0 -10 -7 -10 -16 0 -10 6 -14 14 -11 10 4 13 1 10 -8 -4 -10 0 -12 15
-8 24 6 50 -21 77 -80 15 -32 16 -42 5 -59 -16 -25 1 -40 37 -33 16 3 22 -1
22 -15 0 -10 4 -21 9 -24 12 -8 8 -59 -5 -63 -9 -3 -39 25 -118 110 -27 29
-49 33 -90 17 -30 -11 -33 -25 -9 -34 10 -4 14 -4 11 0 -4 3 0 13 9 22 14 14
17 14 28 -1 7 -9 19 -17 28 -17 13 0 38 -30 41 -50 1 -3 4 -4 8 -3 4 2 4 -5 1
-14 -4 -11 -3 -14 5 -9 7 4 12 1 12 -8 0 -9 -7 -16 -15 -16 -8 0 -15 -8 -15
-17 0 -13 3 -14 12 -5 7 7 20 12 30 12 11 0 15 5 12 15 -5 11 -2 13 10 9 9 -3
16 -12 16 -20 0 -7 12 -19 28 -26 15 -7 27 -20 27 -28 1 -8 7 -26 14 -38 14
-27 9 -37 -13 -29 -10 4 -13 13 -9 24 6 15 5 16 -9 3 -15 -14 -14 -17 13 -43
24 -23 29 -36 29 -73 0 -42 -1 -44 -28 -44 -26 0 -78 13 -174 42 -37 11 -53
38 -24 38 23 0 23 33 1 52 -14 11 -24 13 -32 6 -10 -8 -13 -6 -14 8 -1 11 -2
33 -4 51 -2 28 0 32 19 30 15 -1 20 3 18 17 -2 10 1 15 7 11 6 -3 9 0 5 8 -3
9 3 16 15 20 23 6 30 47 8 47 -24 0 -82 -35 -82 -50 0 -8 -7 -15 -15 -15 -8 0
-18 -11 -21 -25 -3 -14 -11 -24 -17 -22 -10 2 -10 -3 -2 -17 8 -16 6 -22 -9
-31 -25 -13 -41 -13 -41 0 0 6 7 10 15 10 8 0 15 5 15 11 0 6 -6 9 -14 6 -8
-3 -29 8 -47 24 -21 19 -39 27 -51 23 -10 -3 -31 4 -48 16 -16 12 -34 18 -40
15 -5 -3 -10 -2 -10 2 0 5 -15 9 -34 10 l-33 1 22 -23 c26 -25 55 -39 55 -26
0 5 -6 12 -12 14 -7 3 -4 6 8 6 11 1 29 -6 40 -14 16 -12 16 -14 3 -15 -9 0
-22 -7 -29 -15 -10 -12 -10 -15 3 -15 10 0 15 -8 14 -20 -1 -11 -5 -20 -9 -20
-4 0 -8 -5 -8 -11 0 -6 9 -9 20 -6 22 6 27 -7 8 -20 -17 -10 -40 -14 -56 -8
-10 4 -10 9 -1 26 10 19 9 21 -6 16 -9 -4 -25 -7 -36 -7 -16 0 -18 -3 -9 -19
5 -11 10 -30 10 -42 0 -17 3 -19 14 -10 13 11 56 7 81 -7 17 -10 55 -11 55 -1
0 6 21 8 50 6 48 -5 67 4 35 17 -18 7 -20 26 -2 26 15 0 40 -38 32 -50 -3 -5
0 -12 6 -16 6 -4 16 1 21 10 5 9 13 14 18 11 11 -7 -11 -49 -41 -78 -32 -31
-65 -78 -62 -89 2 -4 -1 -7 -5 -5 -5 1 -28 -20 -51 -48 -24 -27 -45 -52 -47
-54 -5 -5 -55 -13 -76 -11 -64 3 -78 6 -78 12 0 8 34 20 46 16 5 -2 20 5 34
15 18 13 20 17 8 17 -9 0 -19 -4 -23 -10 -7 -11 -45 19 -45 37 0 7 -7 10 -16
6 -10 -4 -17 1 -21 16 -6 22 -18 27 -28 11 -10 -17 -48 -12 -41 5 3 8 1 15 -4
15 -6 0 -10 -6 -10 -14 0 -7 -9 -16 -20 -19 -13 -3 -18 -10 -14 -21 4 -10 1
-16 -9 -16 -8 0 -18 -7 -21 -16 -4 -11 -2 -15 8 -11 9 4 12 0 9 -12 -3 -12 2
-20 16 -24 12 -3 21 -10 21 -16 0 -7 -10 -9 -26 -5 -19 5 -25 4 -20 -5 5 -8
189 -11 697 -11 l689 0 -1 116 c0 64 2 118 4 120 3 3 22 -11 43 -31 l39 -36
-27 -20 c-26 -19 -28 -26 -28 -85 l0 -64 219 0 220 0 3 43 c3 42 4 42 53 54
86 22 277 52 291 46 9 -3 14 -22 15 -47 1 -22 5 -54 9 -71 6 -22 9 -8 8 50 0
44 0 88 1 97 1 20 59 38 248 77 l133 28 4 -31 c6 -37 26 -220 26 -235 0 -6 16
-11 35 -11 41 0 40 -10 21 165 -7 66 -12 121 -11 122 1 2 86 20 188 40 l187
37 0 159 0 159 -24 -6 c-22 -5 -218 74 -357 144 l-42 22 -25 -29 c-15 -15 -81
-87 -149 -159 -67 -72 -120 -133 -118 -136 3 -2 -1 -5 -8 -5 -6 0 -27 -3 -44
-7 -35 -8 -43 3 -20 26 7 7 15 18 16 23 2 6 7 9 12 8 5 -2 8 1 6 6 -1 5 34 44
79 87 44 44 69 70 55 59 -14 -11 -6 2 19 28 45 48 68 64 34 25 -17 -21 -17
-21 8 1 15 13 25 28 21 34 -3 6 -2 7 4 4 6 -4 25 13 44 36 18 23 44 50 56 60
13 10 23 25 23 32 0 8 5 17 12 21 7 5 8 3 3 -7 -5 -8 1 -6 13 5 12 10 19 23
15 29 -3 5 -1 7 4 4 13 -8 36 17 25 27 -4 4 -1 6 7 4 8 -2 20 8 28 22 7 14 13
21 13 16 0 -5 10 4 22 20 12 16 27 32 33 36 5 4 10 13 10 20 1 7 6 12 12 11
16 -3 51 38 59 71 4 19 3 27 -3 23 -6 -4 -8 3 -6 17 3 14 -5 34 -22 54 -26 31
-53 45 -39 19 4 -6 -5 -1 -19 12 -15 13 -24 28 -20 34 3 6 2 7 -4 4 -11 -7
-66 46 -58 56 3 4 2 5 -2 2 -11 -8 -83 67 -76 79 3 6 3 8 -2 4 -13 -12 -47 12
-41 28 3 8 2 13 -3 10 -12 -8 -263 233 -255 245 3 5 1 8 -4 7 -6 -2 -63 50
-128 114 -66 65 -123 122 -129 128 -5 5 -35 33 -65 62 -30 28 -54 54 -54 57 1
3 -10 17 -24 31 -16 16 -20 18 -11 5 13 -19 13 -19 -4 -6 -10 8 -16 20 -13 26
2 7 -12 21 -32 32 -21 11 -36 26 -34 34 2 8 1 11 -3 7 -9 -8 -38 19 -54 50 -7
12 -17 20 -23 16 -7 -4 -8 -3 -4 4 4 7 2 12 -4 12 -6 0 -8 5 -4 12 5 8 2 9
-12 4 -10 -4 -15 -4 -11 0 4 4 2 12 -3 19 -14 17 -18 86 -45 750 -14 330 -28
653 -31 718 l-7 117 -154 0 -155 0 6 -232z m336 -1303 c13 -14 21 -25 18 -25
-2 0 -15 11 -28 25 -13 14 -21 25 -18 25 2 0 15 -11 28 -25z m-146 6 c-8 -8
-43 -8 -38 0 2 4 13 7 24 6 10 -1 17 -3 14 -6z m100 -50 c3 -4 -6 -6 -19 -3
-14 2 -25 6 -25 8 0 8 39 4 44 -5z m42 -57 c5 -20 9 -23 16 -12 8 11 9 10 6
-1 -6 -22 -28 -25 -28 -4 0 11 -5 24 -12 31 -9 9 -9 12 0 12 6 0 15 -12 18
-26z m-46 -24 c0 -5 -4 -10 -10 -10 -5 0 -10 5 -10 10 0 6 5 10 10 10 6 0 10
-4 10 -10z m-99 -17 c13 -17 13 -17 -6 -3 -11 8 -22 16 -24 17 -2 2 0 3 6 3 6
0 17 -8 24 -17z m175 -8 c-9 -9 -16 -13 -16 -8 0 12 22 34 28 28 2 -2 -3 -11
-12 -20z m-246 12 c0 -2 -10 -12 -22 -23 l-23 -19 19 23 c18 21 26 27 26 19z
m333 -72 c1 -5 -9 -11 -23 -12 l-25 -2 25 8 c22 7 23 9 7 16 -10 4 -24 2 -32
-5 -9 -8 -15 -8 -15 -2 0 6 6 13 13 16 10 5 10 7 0 12 -7 3 -13 10 -13 16 0
13 61 -33 63 -47z m-356 0 c9 -7 5 -10 -14 -12 -18 -1 -22 2 -12 7 11 7 10 10
-4 16 -9 3 -14 10 -11 16 3 5 11 4 17 -4 7 -7 17 -17 24 -23z m258 15 c3 -6
-1 -7 -9 -4 -18 7 -21 14 -7 14 6 0 13 -4 16 -10z m-358 -51 c-26 -23 -47 -46
-47 -51 0 -5 -7 -16 -15 -24 -18 -18 -20 -4 -2 15 10 11 8 12 -8 3 -35 -20
-70 -52 -57 -52 7 0 10 -5 7 -10 -4 -6 -11 -8 -16 -5 -5 4 -17 1 -26 -5 -16
-9 -15 -10 5 -5 13 4 22 2 22 -4 0 -6 -11 -11 -25 -11 -35 0 -31 14 13 47 20
15 51 39 68 53 18 14 47 36 65 50 18 14 37 30 43 36 6 7 13 10 15 8 3 -3 -16
-23 -42 -45z m343 27 c0 -3 -4 -8 -10 -11 -5 -3 -10 -1 -10 4 0 6 5 11 10 11
6 0 10 -2 10 -4z m194 -78 c-10 -15 -23 -8 -17 9 6 15 5 16 -9 3 -9 -8 -14
-18 -12 -22 2 -4 0 -9 -6 -13 -5 -3 -10 3 -10 15 0 11 -6 23 -14 26 -11 4 -11
10 -2 29 l11 24 32 -31 c18 -17 30 -35 27 -40z m-678 37 c-9 -9 -16 -13 -16
-8 0 12 22 34 28 28 2 -2 -3 -11 -12 -20z m154 -10 c-7 -8 -17 -15 -23 -15 -6
0 -2 7 9 15 25 19 30 19 14 0z m80 -19 c0 -3 -4 -8 -10 -11 -5 -3 -10 -1 -10
4 0 6 5 11 10 11 6 0 10 -2 10 -4z m493 -43 c18 -20 33 -40 33 -45 1 -4 2 -15
3 -24 0 -8 6 -12 12 -9 6 4 8 13 5 21 -3 7 78 -68 179 -168 101 -99 182 -186
178 -191 -3 -6 -2 -7 4 -4 5 3 31 -16 58 -43 40 -40 46 -50 32 -56 -9 -3 -17
-11 -17 -17 0 -5 9 -2 19 7 19 17 21 16 54 -20 33 -36 34 -39 20 -64 l-15 -25
19 24 20 24 64 -63 c37 -37 59 -65 51 -68 -7 -2 -9 -8 -6 -14 4 -6 10 -5 15 3
6 11 14 8 33 -10 29 -27 26 -44 -3 -17 -16 15 -19 15 -31 1 -7 -8 -19 -15 -26
-15 -8 0 -14 -5 -14 -12 0 -28 -11 4 -15 41 -3 39 8 56 18 29 3 -7 5 -4 4 8
-1 23 -32 30 -40 10 -3 -8 -2 -30 3 -51 5 -21 5 -34 0 -29 -4 5 -10 18 -13 29
-4 18 -5 18 -6 -2 -1 -29 -29 -35 -101 -25 l-55 8 43 14 c23 7 42 17 42 21 0
12 -61 23 -112 20 -30 -2 -48 1 -48 8 0 6 -7 11 -15 11 -8 0 -15 5 -15 10 0 6
7 10 15 10 8 0 15 6 15 14 0 8 9 18 20 21 11 3 20 11 20 16 0 5 -9 9 -20 9
-11 0 -20 -4 -20 -10 0 -18 -22 -10 -42 15 -11 14 -25 25 -31 24 -33 -4 -41 1
-24 14 22 16 25 39 7 43 -92 20 -115 31 -118 54 -2 14 -10 33 -18 44 -13 20
-14 19 -14 -7 0 -15 -4 -27 -9 -27 -5 0 -7 10 -4 23 5 22 5 22 -10 2 -19 -24
-26 -19 -29 23 -1 17 -4 29 -6 27 -3 -2 -11 2 -18 10 -10 9 -14 38 -14 89 0
47 -4 76 -11 76 -14 0 -81 72 -73 79 3 3 11 -1 17 -10 7 -9 18 -14 25 -12 6 3
12 0 12 -7 0 -6 4 -8 10 -5 5 3 15 -3 22 -15 7 -11 20 -20 28 -20 12 1 11 3
-2 11 -10 5 -18 18 -18 27 0 10 3 13 8 6 11 -16 41 -24 47 -14 4 6 0 10 -7 10
-23 0 -41 17 -42 41 0 12 -8 24 -16 26 -9 3 -11 1 -5 -4 14 -10 17 -53 4 -53
-5 0 -9 4 -9 9 0 5 -17 11 -39 15 -21 3 -51 12 -67 20 -28 15 -28 15 -41 -22
-7 -20 -13 -39 -13 -42 0 -8 -20 24 -20 33 0 4 7 7 15 7 10 0 15 10 15 28 0
22 5 28 25 30 14 1 36 3 49 5 16 1 24 8 23 19 -1 13 -4 14 -14 6 -18 -15 -44
19 -37 47 4 16 3 17 -5 5 -5 -8 -13 -11 -17 -7 -6 6 13 37 23 37 2 0 18 -17
36 -37z m-173 12 c0 -8 -4 -15 -10 -15 -5 0 -10 7 -10 15 0 8 5 15 10 15 6 0
10 -7 10 -15z m58 -36 c19 -30 8 -34 -12 -4 -9 14 -13 25 -9 25 5 0 14 -9 21
-21z m-536 -9 c7 -11 18 -20 24 -20 20 0 24 -28 7 -42 -15 -11 -16 -11 -10 5
5 13 1 17 -16 18 -12 1 -26 1 -31 0 -5 -1 -4 4 3 12 9 12 8 18 -4 31 -15 14
-15 16 -1 16 9 0 21 -9 28 -20z m602 -21 c-3 -5 -13 -9 -22 -9 -13 0 -14 2 -3
9 9 6 10 11 2 15 -6 4 -11 12 -11 18 0 6 9 3 20 -7 11 -10 17 -22 14 -26z
m-639 -5 c-9 -9 -18 -14 -21 -11 -9 9 6 27 22 27 13 0 13 -2 -1 -16z m140 -4
c13 -5 14 -9 5 -9 -8 0 -24 4 -35 9 -13 5 -14 9 -5 9 8 0 24 -4 35 -9z m60 0
c13 -6 15 -9 5 -9 -8 0 -22 4 -30 9 -18 12 -2 12 25 0z m-319 -19 c-15 -16
-15 -19 -1 -24 8 -4 15 -18 15 -32 0 -23 4 -25 40 -25 22 0 40 5 40 10 0 6 8
5 20 -2 24 -15 26 -28 5 -28 -8 0 -15 -5 -15 -12 0 -6 -6 -4 -13 7 -10 13 -21
16 -41 11 -33 -8 -61 15 -53 44 3 11 4 20 2 20 -2 0 -12 3 -22 6 -15 5 -15 4
-3 -5 8 -5 11 -13 7 -18 -5 -4 -11 -2 -15 4 -5 8 -12 8 -24 -1 -16 -12 -16
-15 -2 -35 16 -23 13 -51 -6 -51 -6 0 -8 5 -4 11 5 8 1 8 -14 0 -11 -6 -27 -8
-35 -5 -8 3 -18 1 -21 -4 -3 -5 10 -12 30 -15 48 -8 68 -24 51 -42 -7 -7 -23
-16 -35 -19 -18 -6 -22 -15 -22 -47 0 -32 3 -39 20 -39 17 0 20 7 20 43 0 33
3 39 11 27 9 -12 10 -12 5 4 -5 16 -2 17 20 12 34 -9 54 -29 54 -55 0 -16 8
-21 43 -24 41 -3 41 -4 -10 -5 -28 -1 -58 -5 -67 -8 -20 -8 -21 13 -1 32 20
20 19 34 -1 34 -23 0 -43 -29 -44 -62 0 -23 3 -26 35 -25 19 1 40 -4 45 -9 7
-7 -4 -10 -35 -8 -34 2 -45 -1 -45 -12 0 -10 13 -14 43 -16 37 -1 35 -2 -18
-8 -33 -3 -67 -10 -76 -14 -15 -6 -16 -1 -12 39 5 40 2 48 -21 70 -14 13 -26
33 -26 45 0 11 -6 20 -12 20 -9 0 -8 4 2 10 8 5 20 10 25 10 6 0 3 -5 -5 -10
-8 -5 -10 -10 -4 -10 6 0 17 7 24 15 7 8 21 15 31 15 10 0 21 5 24 10 3 6 -4
10 -16 10 -12 0 -30 6 -38 14 -14 13 -20 11 -51 -15 -31 -25 -32 -27 -8 -16
16 6 28 15 28 20 0 13 18 7 24 -9 3 -9 2 -12 -5 -9 -5 4 -25 -5 -44 -20 -19
-14 -35 -21 -35 -16 0 6 -7 8 -15 5 -12 -5 -10 -10 8 -25 12 -10 17 -18 12
-19 -6 0 -15 4 -21 10 -10 10 -54 3 -54 -9 0 -4 12 -8 28 -9 44 -1 66 -8 70
-20 2 -7 -1 -12 -7 -12 -6 0 -11 -4 -11 -10 0 -5 9 -10 20 -10 13 0 20 -7 20
-20 0 -13 -7 -20 -20 -20 -28 0 -25 -20 3 -21 12 0 -6 -9 -40 -20 -58 -18 -84
-39 -49 -39 8 0 18 -5 22 -12 5 -8 -2 -9 -23 -5 -54 11 -73 -1 -73 -43 0 -21
-5 -40 -11 -42 -17 -6 67 -60 87 -56 26 5 29 28 5 35 -23 6 -29 23 -8 23 26 0
67 -25 67 -41 0 -9 -10 -20 -22 -24 l-23 -8 23 -4 c12 -2 22 -9 22 -14 0 -5
-11 -7 -24 -3 -14 3 -33 1 -43 -4 -17 -10 -17 -11 0 -17 9 -4 28 -5 40 -3 29
6 49 -13 32 -29 -8 -7 -18 -7 -28 -1 -11 6 -23 5 -35 -1 -15 -9 -15 -10 6 -11
19 0 22 -5 22 -40 0 -36 -3 -40 -24 -40 -17 0 -23 -5 -22 -17 1 -13 -8 -19
-30 -21 -26 -3 -33 1 -38 20 -5 18 -8 20 -15 9 -8 -12 -12 -12 -25 2 -9 8 -16
23 -16 32 0 14 -39 38 -48 30 -2 -2 -1 -18 3 -35 5 -21 11 -30 21 -26 17 6 17
1 4 -25 -6 -10 -17 -19 -25 -19 -8 0 -18 -6 -22 -13 -4 -8 -16 -18 -26 -24
-15 -8 -35 9 -125 101 -59 61 -110 112 -114 114 -15 7 -8 36 14 59 21 23 45
32 33 13 -3 -6 1 -7 10 -3 11 4 13 8 5 13 -7 4 21 32 71 71 46 35 99 78 118
95 115 98 132 108 182 110 50 1 68 8 56 20 -4 4 -13 1 -21 -5 -9 -8 -16 -8
-20 -2 -4 6 -14 7 -24 4 -10 -4 -7 2 8 15 14 12 32 28 40 35 8 8 44 37 80 65
48 37 70 48 80 41 24 -14 37 -10 16 6 -18 13 -17 15 14 42 40 33 103 81 109
82 2 1 -4 -7 -13 -18z m254 -1 c12 -8 11 -10 -7 -10 -13 0 -23 5 -23 10 0 13
11 13 30 0z m-187 -31 c-17 -17 -37 -1 -22 17 8 10 15 12 23 4 7 -7 7 -13 -1
-21z m87 -64 l-8 -40 -1 36 c0 20 2 39 6 42 11 11 11 4 3 -38z m207 -7 c-3 -7
-5 -2 -5 12 0 14 2 19 5 13 2 -7 2 -19 0 -25z m33 22 c0 -5 -5 -10 -11 -10 -5
0 -7 5 -4 10 3 6 8 10 11 10 2 0 4 -4 4 -10z m-404 -57 c-2 -26 0 -33 10 -29
8 3 14 1 14 -4 0 -6 -4 -10 -10 -10 -5 0 -10 -5 -10 -10 0 -6 6 -10 13 -9 6 1
20 -2 31 -6 11 -5 26 -4 37 3 17 11 35 2 22 -12 -10 -10 -64 -7 -100 6 -25 9
-32 16 -27 30 3 10 0 18 -6 18 -8 0 -10 8 -5 23 3 12 7 27 7 34 1 6 7 9 15 6
9 -3 12 -17 9 -40z m393 -5 c11 -18 11 -18 -14 -2 -29 19 -30 21 -11 21 7 0
19 -9 25 -19z m234 3 c-4 -3 -10 -10 -14 -14 -3 -4 -11 -2 -17 5 -8 10 -5 13
15 14 13 1 21 -1 16 -5z m54 3 c-3 -3 -12 -4 -19 -1 -8 3 -5 6 6 6 11 1 17 -2
13 -5z m-602 -13 c7 -12 -12 -24 -25 -16 -11 7 -4 25 10 25 5 0 11 -4 15 -9z
m127 -26 c16 -14 39 -25 51 -26 12 0 16 -3 9 -6 -16 -6 -72 16 -72 29 0 5 -10
13 -22 18 -13 5 -17 9 -9 9 7 1 26 -10 43 -24z m501 18 c-7 -2 -19 -2 -25 0
-7 3 -2 5 12 5 14 0 19 -2 13 -5z m97 -9 c0 -2 -7 -4 -15 -4 -8 0 -15 4 -15
10 0 5 7 7 15 4 8 -4 15 -8 15 -10z m-680 -4 c0 -5 -4 -10 -10 -10 -5 0 -10 5
-10 10 0 6 5 10 10 10 6 0 10 -4 10 -10z m510 -10 c-24 -15 -36 -11 -14 4 10
8 21 12 24 10 2 -3 -2 -9 -10 -14z m-470 -15 c0 -8 -4 -15 -9 -15 -5 0 -11 7
-15 15 -3 9 0 15 9 15 8 0 15 -7 15 -15z m619 1 c7 -8 8 -17 3 -20 -6 -3 -12
3 -15 14 -6 24 -4 25 12 6z m35 -30 c-5 -20 -10 -24 -17 -17 -8 8 -8 14 0 22
6 6 9 19 6 28 -5 12 -3 13 6 5 7 -7 9 -22 5 -38z m-586 -42 c2 -21 -1 -31 -11
-31 -9 0 -12 9 -9 29 5 30 -14 39 -21 11 -3 -13 -5 -12 -6 5 -1 19 3 23 22 20
16 -2 23 -11 25 -34z m370 5 c-4 -27 0 -35 35 -60 22 -16 46 -29 54 -29 7 0
13 -4 13 -9 0 -17 -60 13 -90 44 -22 23 -27 36 -23 58 7 37 16 34 11 -4z m-38
0 c0 -6 -4 -7 -10 -4 -5 3 -10 11 -10 16 0 6 5 7 10 4 6 -3 10 -11 10 -16z
m-299 -16 c-8 -15 -10 -15 -11 -2 0 17 10 32 18 25 2 -3 -1 -13 -7 -23z m548
-9 c4 3 7 -4 8 -14 2 -26 -12 -33 -27 -15 -7 9 -9 23 -4 37 7 19 9 20 12 5 2
-9 7 -15 11 -13z m-659 -14 c0 -5 -4 -10 -10 -10 -5 0 -10 5 -10 10 0 6 5 10
10 10 6 0 10 -4 10 -10z m414 2 c2 -4 1 -14 -3 -21 -6 -9 -11 -10 -15 -2 -4 6
-1 11 6 11 9 0 9 3 -2 10 -9 6 -10 10 -3 10 6 0 14 -4 17 -8z m16 -32 c-6 -11
-13 -20 -16 -20 -2 0 0 9 6 20 6 11 13 20 16 20 2 0 0 -9 -6 -20z m-390 -6 c0
-8 -5 -12 -10 -9 -6 4 -8 11 -5 16 9 14 15 11 15 -7z m-80 2 c0 -11 -19 -15
-25 -6 -3 5 1 10 9 10 9 0 16 -2 16 -4z m505 -6 c3 -6 -1 -7 -9 -4 -18 7 -21
14 -7 14 6 0 13 -4 16 -10z m-417 -54 c-12 -17 -23 -33 -26 -36 -4 -5 9 51 14
61 2 3 10 6 18 6 12 0 11 -7 -6 -31z m404 9 c-8 -16 -9 -16 -15 -1 -4 10 -3
15 3 11 6 -3 10 -1 10 6 0 7 3 10 6 6 3 -3 2 -13 -4 -22z m-568 -10 c3 -8 1
-15 -4 -15 -5 0 -11 -8 -13 -17 -3 -10 -5 -3 -6 15 -1 33 12 44 23 17z m136
11 c0 -3 -4 -8 -10 -11 -5 -3 -10 -1 -10 4 0 6 5 11 10 11 6 0 10 -2 10 -4z
m534 -40 c-3 -21 -8 -35 -11 -32 -2 2 -1 20 3 40 3 21 8 35 11 32 2 -2 1 -20
-3 -40z m-606 -13 c-2 -10 3 -24 12 -31 13 -10 11 -11 -9 -4 -27 9 -39 61 -18
74 13 8 21 -11 15 -39z m27 38 c3 -5 1 -12 -5 -16 -5 -3 -10 1 -10 9 0 18 6
21 15 7z m522 -13 c-3 -8 -6 -5 -6 6 -1 11 2 17 5 13 3 -3 4 -12 1 -19z m229
13 c-3 -5 2 -15 11 -22 14 -12 15 -11 8 10 -6 21 -5 22 8 10 10 -10 12 -18 5
-26 -17 -20 1 -33 40 -28 26 3 33 2 22 -5 -13 -9 -13 -11 0 -20 8 -5 10 -10 4
-10 -6 0 -17 7 -24 15 -7 9 -15 13 -18 10 -3 -3 3 -14 13 -25 10 -11 13 -20 7
-20 -7 0 -12 3 -12 8 0 4 -18 27 -40 50 -34 37 -44 62 -24 62 3 0 3 -4 0 -9z
m-1056 -11 c0 -5 -9 -10 -20 -10 -11 0 -20 5 -20 10 0 6 9 10 20 10 11 0 20
-4 20 -10z m340 -24 c0 -24 -24 -35 -39 -19 -12 13 -11 14 9 8 19 -6 21 -4 15
15 -5 15 -4 20 4 16 6 -4 11 -13 11 -20z m150 -1 c-7 -8 -16 -15 -21 -15 -5 0
-1 8 9 18 20 22 31 19 12 -3z m666 -2 c-10 -10 -19 5 -10 18 6 11 8 11 12 0 2
-7 1 -15 -2 -18z m-1076 -3 c12 -8 11 -10 -7 -10 -13 0 -23 5 -23 10 0 13 11
13 30 0z m494 -110 c3 -15 -1 -11 -10 10 -9 19 -19 37 -24 40 -4 3 -10 15 -14
28 -4 12 -12 22 -17 22 -6 0 -7 5 -3 11 7 12 57 -70 68 -111z m243 83 c0 -21
-2 -31 -5 -23 -2 8 -9 23 -14 34 -7 13 -7 16 1 12 6 -4 11 -2 11 3 0 6 1 11 3
11 2 0 3 -17 4 -37z m-824 20 c-7 -2 -19 -2 -25 0 -7 3 -2 5 12 5 14 0 19 -2
13 -5z m443 -18 c-23 -34 -20 -55 7 -56 21 0 21 -1 2 -9 -11 -5 -27 -9 -35 -9
-13 -1 -13 0 0 9 8 5 10 10 4 10 -17 0 -12 32 9 57 27 30 34 29 13 -2z m-537
-1 c17 -12 26 -13 34 -5 18 18 27 13 27 -19 0 -32 -9 -37 -27 -19 -8 8 -17 7
-34 -5 -34 -23 -39 -20 -39 24 0 44 5 47 39 24z m1321 -4 c0 -11 -4 -20 -9
-20 -7 0 -8 17 -2 38 4 10 11 -2 11 -18z m67 3 c3 -7 -3 -9 -17 -6 -29 8 -37
25 -9 21 12 -1 24 -8 26 -15z m-1233 -17 c-3 -8 0 -17 6 -21 9 -6 9 -10 -1
-16 -11 -7 -11 -9 -1 -9 17 0 73 -62 68 -75 -2 -5 2 -17 9 -25 13 -15 45 -464
45 -627 0 -39 5 -75 10 -78 6 -3 10 -11 10 -16 0 -6 -7 -4 -15 4 -11 11 -15
42 -16 116 -1 56 -6 101 -11 101 -5 0 -7 14 -3 31 10 44 -5 260 -16 234 -6
-13 -7 -8 -2 15 7 39 8 47 5 140 -1 38 -6 60 -10 52 -14 -21 -66 -20 -70 1 -4
20 34 25 41 5 3 -10 7 -10 17 -1 13 12 4 37 -10 28 -5 -3 -11 -1 -15 5 -11 17
-43 11 -50 -10 -3 -11 -13 -20 -21 -20 -24 0 -15 18 21 40 41 26 46 56 10 62
-23 5 -25 2 -25 -28 0 -19 -4 -34 -10 -34 -17 0 -12 77 5 84 9 3 15 18 15 36
0 17 4 29 10 25 5 -3 7 -12 4 -19z m51 14 c-3 -5 -10 -10 -16 -10 -5 0 -9 5
-9 10 0 6 7 10 16 10 8 0 12 -4 9 -10z m162 -24 c-2 -6 -12 -12 -23 -13 -10
-2 -13 0 -6 3 10 5 9 11 -5 26 -17 19 -17 19 10 7 15 -7 26 -17 24 -23z m253
-11 c0 -8 -4 -15 -9 -15 -13 0 -22 16 -14 24 11 11 23 6 23 -9z m-416 -3 c3
-5 -1 -9 -9 -9 -8 0 -15 4 -15 9 0 4 4 8 9 8 6 0 12 -4 15 -8z m101 -2 c3 -5
2 -10 -4 -10 -5 0 -13 5 -16 10 -3 6 -2 10 4 10 5 0 13 -4 16 -10z m182 -5 c0
-8 -4 -15 -9 -15 -10 0 -11 14 -1 23 9 10 10 9 10 -8z m466 0 c-3 -9 -8 -14
-10 -11 -3 3 -2 9 2 15 9 16 15 13 8 -4z m44 -7 c-3 -8 -6 -5 -6 6 -1 11 2 17
5 13 3 -3 4 -12 1 -19z m260 8 c-4 -9 3 -16 19 -20 23 -6 34 -26 14 -26 -5 0
-10 4 -10 9 0 5 -9 11 -20 14 -13 3 -18 10 -14 21 3 9 8 16 11 16 3 0 3 -6 0
-14z m-800 -25 c-1 -12 -6 -17 -17 -13 -12 4 -11 1 3 -16 19 -20 18 -21 -5
-16 -12 2 -17 2 -10 -2 6 -3 12 -11 12 -17 0 -8 -4 -7 -12 1 -19 19 -29 14
-16 -9 10 -17 10 -23 1 -26 -7 -3 -13 -14 -13 -25 0 -42 -65 -63 -104 -33 -20
15 -15 52 5 39 8 -5 8 -9 -1 -14 -9 -6 -9 -9 1 -16 7 -4 14 -3 17 4 2 7 10 12
18 12 8 0 14 5 14 11 0 6 -7 9 -15 5 -8 -3 -15 -1 -15 4 0 5 -8 11 -17 13 -10
2 -3 3 15 1 26 -2 33 1 31 14 -1 9 -1 22 0 28 1 14 51 37 51 24 0 -6 5 -10 11
-10 6 0 9 7 6 14 -4 9 2 17 14 21 10 4 19 11 19 16 0 5 2 9 4 9 3 0 4 -9 3
-19z m-367 -31 c0 -22 -4 -40 -10 -40 -5 0 -10 18 -10 40 0 22 5 40 10 40 6 0
10 -18 10 -40z m220 35 c0 -2 -13 -11 -29 -19 -25 -13 -30 -13 -47 0 -18 15
-18 15 1 5 14 -6 28 -5 45 5 29 15 30 16 30 9z m336 -21 c-4 -9 -9 -15 -11
-12 -3 3 -3 13 1 22 4 9 9 15 11 12 3 -3 3 -13 -1 -22z m325 16 c9 13 10 13 6
0 -5 -19 -49 -20 -55 -2 -3 11 -1 11 17 0 18 -11 23 -11 32 2z m365 -51 c2
-27 0 -39 -5 -30 -5 7 -7 23 -4 35 4 20 4 20 -11 2 -14 -18 -36 -15 -36 5 0 6
4 8 9 5 13 -8 34 21 25 36 -5 10 -4 10 5 2 7 -7 14 -31 17 -55z m74 47 c0 -8
-4 -18 -10 -21 -5 -3 -10 -4 -10 -1 0 2 -3 11 -6 20 -4 11 -1 16 10 16 9 0 16
-6 16 -14z m-880 -53 c11 3 20 1 20 -5 0 -5 -15 -8 -32 -6 -20 2 -32 8 -30 16
1 6 -4 12 -10 12 -9 0 -8 3 2 10 11 7 17 4 23 -12 5 -14 13 -19 27 -15z m127
5 c-3 -8 -6 -5 -6 6 -1 11 2 17 5 13 3 -3 4 -12 1 -19z m661 -43 c-3 -3 -9 2
-12 12 -6 14 -5 15 5 6 7 -7 10 -15 7 -18z m-833 -32 c5 -17 2 -23 -9 -23 -11
0 -16 10 -16 32 0 34 13 29 25 -9z m150 24 c-4 -8 -20 -11 -53 -7 l-47 4 50 7
c28 3 51 7 52 7 1 1 0 -4 -2 -11z m435 -24 c6 -21 19 -54 27 -73 9 -19 17 -66
19 -105 l3 -70 -9 73 c-5 40 -16 83 -25 95 -8 12 -15 32 -15 45 0 22 -2 23
-17 11 -15 -13 -15 -12 -2 8 16 26 2 47 -24 37 -13 -4 -14 -10 -7 -24 13 -24
-4 -35 -23 -16 -10 11 -17 12 -25 4 -7 -7 -14 -9 -17 -7 -7 8 67 57 87 58 11
1 20 -12 28 -36z m343 -3 c3 -10 -1 -24 -9 -31 -11 -9 -14 -6 -14 20 0 34 15
42 23 11z m-969 -23 c-9 -24 -23 -11 -17 14 3 12 9 17 15 11 5 -5 6 -16 2 -25z
m928 15 c3 -11 0 -19 -8 -19 -15 0 -19 19 -7 30 9 10 10 9 15 -11z m-752 -14
c0 -12 -82 -6 -87 7 -2 6 15 9 42 7 25 -2 45 -8 45 -14z m1263 -11 c9 -4 17
-14 17 -24 0 -15 -2 -16 -10 -3 -8 12 -12 13 -19 2 -6 -10 -10 -7 -15 12 -9
35 -28 33 -21 -1 5 -26 5 -26 -4 -5 -6 12 -8 29 -4 37 5 14 8 14 22 2 9 -8 24
-17 34 -20z m-1753 4 c-13 -25 -13 -51 0 -51 6 0 10 7 10 15 0 22 16 18 38
-10 11 -14 25 -25 31 -25 14 0 14 35 1 60 -7 13 -6 19 3 23 7 3 12 -4 12 -17
1 -11 4 -36 8 -54 6 -31 5 -33 -14 -27 -26 9 -39 -8 -39 -52 0 -17 -5 -35 -11
-39 -8 -5 -10 3 -7 24 3 21 0 33 -10 37 -10 3 -12 13 -8 31 7 25 6 25 -19 8
-29 -19 -33 -49 -7 -63 9 -6 11 -11 5 -11 -18 0 -16 -29 2 -36 14 -6 30 -49
39 -104 2 -17 4 -13 5 12 1 44 19 94 29 84 4 -4 13 -22 20 -39 l12 -32 -6 30
c-4 22 -2 27 6 19 14 -14 22 -156 11 -186 -7 -21 -8 -21 -15 7 -6 23 -9 26
-17 14 -7 -11 -9 -9 -9 9 0 41 -19 23 -25 -25 -10 -79 -13 -81 -15 -13 -1 36
-4 57 -7 48 -2 -10 -9 -18 -14 -18 -6 0 -7 -5 -3 -12 7 -12 12 -78 5 -78 -10
0 -30 38 -31 58 0 19 -5 23 -27 20 -25 -3 -28 -7 -28 -38 0 -34 32 -80 56 -80
5 0 9 -4 9 -10 0 -20 -17 -9 -70 45 -50 51 -53 56 -37 70 9 8 12 10 7 3 -18
-22 -11 -32 10 -13 11 10 17 22 14 26 -3 5 0 9 5 9 21 0 11 19 -11 22 -13 2
-23 10 -23 18 0 8 -8 16 -18 18 -16 3 -18 0 -12 -20 4 -16 3 -19 -3 -9 -7 10
-11 10 -17 1 -4 -7 2 -18 14 -26 12 -9 18 -20 15 -26 -4 -6 -17 1 -31 17 -22
23 -23 28 -10 43 8 9 21 31 30 49 15 31 14 32 -6 30 -23 -2 -34 24 -36 81 -1
23 3 32 15 32 11 0 14 -6 9 -20 -7 -22 3 -85 12 -76 3 3 23 -8 44 -25 32 -25
38 -35 33 -55 -7 -28 15 -34 36 -9 14 16 6 35 -16 35 -8 0 -14 7 -14 15 0 8 8
15 19 15 12 0 20 9 24 28 5 28 -2 47 -10 25 -5 -14 -34 -16 -82 -7 -26 6 -31
11 -31 35 0 27 3 29 40 29 50 0 52 -15 3 -25 l-38 -8 32 -10 c26 -8 35 -6 51
9 30 29 36 61 15 73 -17 9 -17 11 2 25 11 8 17 18 13 21 -4 4 -3 16 3 26 6 13
6 25 -1 38 -10 20 -2 28 28 30 9 1 10 -4 2 -18z m577 -38 c-3 -10 -5 -4 -5 12
0 17 2 24 5 18 2 -7 2 -21 0 -30z m240 15 c-3 -8 -6 -5 -6 6 -1 11 2 17 5 13
3 -3 4 -12 1 -19z m-624 -12 c13 3 34 1 47 -4 l25 -10 -27 -12 c-22 -10 -34
-11 -54 -2 l-25 12 7 -47 c5 -27 7 -63 6 -81 -1 -23 2 -31 9 -26 7 4 10 1 7
-6 -2 -8 -9 -15 -15 -17 -12 -4 -26 194 -15 211 4 7 8 4 10 -7 2 -12 10 -15
25 -11z m125 -4 c2 -7 -4 -15 -13 -18 -20 -8 -27 -1 -19 20 7 18 25 17 32 -2z
m181 -14 c0 -13 -3 -17 -6 -10 -2 6 -23 13 -46 14 l-42 1 45 7 c25 4 46 8 48
8 1 1 2 -8 1 -20z m1406 -5 l18 -28 -21 19 c-12 11 -22 23 -22 28 0 14 7 9 25
-19z m-1042 -28 l-6 -30 -8 29 c-9 31 -2 53 11 39 5 -4 6 -21 3 -38z m937 34
c0 -5 4 -8 9 -4 5 3 12 1 15 -3 3 -5 -5 -9 -17 -8 -12 1 -25 -2 -28 -7 -8 -11
-40 3 -33 15 4 6 10 5 15 -3 6 -11 9 -10 15 4 7 19 24 23 24 6z m-971 -69 c-1
-53 -6 -44 -12 24 -3 30 -1 43 4 35 5 -8 8 -34 8 -59z m-575 44 c9 -3 16 -10
16 -14 0 -12 -33 -5 -38 8 -4 14 0 15 22 6z m93 -12 c-10 -10 -17 -31 -17 -45
0 -28 -20 -38 -70 -34 -22 2 -25 -2 -22 -25 3 -29 -4 -34 -26 -19 -12 7 -12
12 0 31 10 18 10 24 1 27 -18 7 -16 43 2 43 8 0 15 -9 15 -21 0 -16 5 -19 20
-15 11 3 30 9 41 12 15 4 18 9 9 14 -9 5 -6 13 11 29 30 27 60 30 36 3z m123
1 c0 -10 -5 -25 -10 -33 -9 -13 -11 -13 -20 0 -17 25 -12 50 10 50 12 0 20 -7
20 -17z m-540 -3 c0 -5 -9 -10 -20 -10 -11 0 -20 5 -20 10 0 6 9 10 20 10 11
0 20 -4 20 -10z m660 -17 c0 -26 -1 -26 -17 -10 -16 16 -16 19 -3 27 20 13 20
13 20 -17z m1273 2 c4 -8 3 -16 -1 -19 -4 -3 -9 4 -9 15 -2 23 3 25 10 4z
m-2105 -7 c16 -16 15 -29 -2 -22 -8 3 -17 1 -21 -5 -5 -10 1 -12 33 -11 13 1
18 -114 4 -136 -6 -11 -10 -22 -8 -25 2 -2 -28 27 -66 66 -62 63 -67 71 -51
82 9 7 25 13 34 13 10 0 26 11 36 25 21 28 25 29 41 13z m1119 -20 c-3 -8 -6
-5 -6 6 -1 11 2 17 5 13 3 -3 4 -12 1 -19z m-478 -19 c-8 -5 -23 -8 -34 -8
-19 0 -19 1 1 9 12 5 25 14 30 21 6 10 9 10 12 0 2 -7 -2 -17 -9 -22z m-312
-31 c-3 -7 -5 -2 -5 12 0 14 2 19 5 13 2 -7 2 -19 0 -25z m386 -51 c3 -70 2
-77 -15 -77 -16 0 -17 3 -8 20 7 12 7 26 2 36 -8 14 6 110 14 101 2 -1 5 -37
7 -80z m114 61 c-3 -8 -6 -5 -6 6 -1 11 2 17 5 13 3 -3 4 -12 1 -19z m373 7
c-12 -15 -30 -12 -30 6 0 5 10 9 21 9 18 0 19 -2 9 -15z m-463 -32 c-3 -10 -5
-4 -5 12 0 17 2 24 5 18 2 -7 2 -21 0 -30z m340 -65 c-2 -18 -4 -4 -4 32 0 36
2 50 4 33 2 -18 2 -48 0 -65z m973 89 c0 -2 -10 -12 -22 -23 l-23 -19 19 23
c18 21 26 27 26 19z m-1489 -17 c16 0 9 -19 -11 -30 -21 -11 -60 2 -60 20 0
10 30 19 48 14 8 -2 18 -4 23 -4z m74 0 c4 -6 -7 -10 -25 -10 -18 0 -29 4 -25
10 3 6 15 10 25 10 10 0 22 -4 25 -10z m944 -115 c-1 -11 -7 5 -14 35 -8 30
-14 64 -14 75 1 11 7 -5 14 -35 8 -30 14 -64 14 -75z m-1779 106 c0 -14 -18
-23 -31 -15 -8 4 -7 9 2 15 18 11 29 11 29 0z m1017 -38 c-3 -10 -5 -2 -5 17
0 19 2 27 5 18 2 -10 2 -26 0 -35z m300 15 c-3 -7 -5 -2 -5 12 0 14 2 19 5 13
2 -7 2 -19 0 -25z m472 0 c-1 -31 -1 -31 -8 -8 -5 14 -6 28 -4 33 9 15 13 6
12 -25z m-938 -7 c-7 -5 -12 -24 -11 -47 2 -54 -9 -86 -29 -81 -9 2 -14 10
-12 18 11 36 12 109 2 109 -6 0 -11 -18 -11 -40 0 -22 -4 -40 -10 -40 -5 0
-10 4 -10 9 0 5 -9 11 -20 14 -11 3 -20 10 -20 17 0 7 9 14 20 17 11 3 20 11
20 19 0 8 15 14 43 16 47 3 57 1 38 -11z m139 5 c0 -8 -4 -17 -9 -21 -12 -7
-24 12 -16 25 9 15 25 12 25 -4z m354 -2 c3 -8 2 -12 -4 -9 -6 3 -10 10 -10
16 0 14 7 11 14 -7z m-666 -21 c2 -8 -6 -13 -23 -13 -17 0 -25 -5 -22 -12 2
-7 16 -12 31 -10 25 3 36 -11 17 -22 -4 -3 -11 -20 -15 -37 -5 -25 -10 -30
-26 -26 -10 3 -21 0 -24 -7 -2 -6 -5 21 -5 61 -1 60 2 72 17 76 26 7 45 3 50
-10z m272 -4 c0 -5 -4 -9 -10 -9 -5 0 -10 7 -10 16 0 8 5 12 10 9 6 -3 10 -10
10 -16z m487 -1 c-3 -8 -6 -5 -6 6 -1 11 2 17 5 13 3 -3 4 -12 1 -19z m-101
-28 c14 0 13 -2 0 -16 -9 -8 -20 -13 -24 -10 -5 3 -8 -7 -6 -22 l4 -27 -9 25
c-5 14 -9 39 -9 55 0 29 0 29 8 5 8 -25 8 -25 10 5 2 24 4 26 7 8 2 -13 11
-23 19 -23z m91 -12 c-3 -8 -6 -5 -6 6 -1 11 2 17 5 13 3 -3 4 -12 1 -19z
m370 0 c-3 -8 -6 -5 -6 6 -1 11 2 17 5 13 3 -3 4 -12 1 -19z m-796 -16 c-7 -2
-10 -17 -6 -40 5 -36 5 -36 -6 -9 -9 22 -8 35 2 54 8 16 15 20 18 12 2 -7 -1
-15 -8 -17z m-731 13 c0 -11 -24 -55 -31 -55 -4 0 -9 7 -13 15 -3 9 0 15 9 15
9 0 12 6 9 15 -4 9 0 15 10 15 9 0 16 -2 16 -5z m502 -97 c-2 -5 -11 -8 -20
-7 -10 0 -12 3 -5 6 8 3 11 20 8 51 l-5 47 13 -45 c7 -25 11 -48 9 -52z m517
13 c1 -48 -5 -35 -12 24 -4 32 -3 43 3 30 5 -11 9 -35 9 -54z m135 30 c-4 -17
-9 -30 -11 -27 -3 2 -2 19 2 36 9 41 17 33 9 -9z m-1298 22 c-2 -2 31 -37 72
-78 41 -41 71 -75 65 -75 -5 0 -38 30 -73 66 -35 37 -66 61 -68 55 -2 -6 -10
-11 -18 -11 -12 0 -12 4 -4 20 14 26 -1 26 -18 0 -7 -12 -17 -18 -22 -15 -17
10 -11 25 13 34 20 8 60 11 53 4z m1208 -9 c3 -8 2 -12 -4 -9 -6 3 -10 10 -10
16 0 14 7 11 14 -7z m459 -14 c-3 -11 -7 -20 -9 -20 -2 0 -4 9 -4 20 0 11 4
20 9 20 5 0 7 -9 4 -20z m-1106 -70 c-1 -60 -4 -73 -11 -54 -7 23 0 134 9 134
3 0 3 -36 2 -80z m280 23 c-3 -10 -5 -2 -5 17 0 19 2 27 5 18 2 -10 2 -26 0
-35z m175 13 c7 4 8 2 4 -5 -11 -17 -26 -3 -25 22 2 22 2 22 6 -1 3 -13 9 -19
15 -16z m-477 -81 c4 -41 11 -77 16 -81 12 -7 11 -54 -1 -54 -6 0 -8 11 -4 25
4 15 2 25 -5 25 -15 0 -14 -53 1 -68 9 -9 8 -12 -6 -12 -17 0 -18 6 -12 70 4
39 4 70 -1 70 -4 0 -8 24 -8 54 0 77 11 60 20 -29z m-155 29 c0 -19 -4 -34
-10 -34 -5 0 -10 18 -10 41 0 24 4 38 10 34 6 -3 10 -22 10 -41z m121 14 c1
-18 1 -53 -1 -77 -1 -33 1 -42 11 -36 9 6 11 3 6 -9 -4 -10 -7 -34 -8 -54 0
-30 -2 -33 -9 -16 -10 26 -17 224 -7 224 4 0 8 -15 8 -32z m277 15 c-2 -10
-10 -18 -18 -18 -8 0 -16 8 -18 18 -2 12 3 17 18 17 15 0 20 -5 18 -17z m402
-9 c-6 -15 -8 -43 -5 -63 5 -35 5 -35 -5 -6 -11 33 -5 95 10 95 6 0 5 -11 0
-26z m104 11 c-4 -8 -8 -15 -10 -15 -2 0 -4 7 -4 15 0 8 4 15 10 15 5 0 7 -7
4 -15z m594 -21 c-19 -19 -28 -23 -33 -13 -5 7 -4 10 3 5 6 -3 19 4 29 18 10
13 20 22 22 20 3 -3 -7 -16 -21 -30z m-434 18 c2 -4 -4 -8 -15 -8 -10 0 -19 4
-19 8 0 4 6 8 14 8 8 0 17 -4 20 -8z m156 4 c0 -2 -9 -6 -20 -9 -11 -3 -20 -1
-20 4 0 5 9 9 20 9 11 0 20 -2 20 -4z m-745 -53 c-9 -65 -15 -83 -26 -83 -5 0
-9 10 -9 23 0 18 2 19 10 7 7 -11 10 -4 10 27 0 40 8 73 17 73 2 0 1 -21 -2
-47z m125 0 c-11 -17 -11 -17 -6 0 3 10 7 26 7 35 1 15 2 15 6 0 2 -10 -1 -25
-7 -35z m326 25 c-3 -13 -6 -32 -6 -42 0 -27 -13 -11 -15 18 0 14 4 22 9 19 5
-4 7 1 3 10 -4 10 -2 17 4 17 7 0 9 -9 5 -22z m-726 2 c0 -5 -4 -10 -10 -10
-5 0 -10 5 -10 10 0 6 5 10 10 10 6 0 10 -4 10 -10z m460 0 c0 -5 -4 -10 -10
-10 -5 0 -10 5 -10 10 0 6 5 10 10 10 6 0 10 -4 10 -10z m434 -30 c-5 -5 -10
3 -11 18 -1 22 0 24 9 8 6 -10 6 -22 2 -26z m139 23 c-7 -2 -19 -2 -25 0 -7 3
-2 5 12 5 14 0 19 -2 13 -5z m-973 -18 c0 -8 -7 -15 -15 -15 -13 0 -14 3 -3
15 16 18 18 18 18 0z m190 -11 c0 -22 -2 -25 -15 -14 -8 7 -15 18 -15 24 0 6
5 4 10 -4 8 -13 10 -12 10 3 0 9 2 17 5 17 3 0 5 -12 5 -26z m616 7 c0 -15 -3
-17 -18 -7 -17 10 -17 11 0 18 9 3 17 7 17 7 1 1 1 -7 1 -18z m-1356 -5 c0
-18 -17 -29 -30 -21 -8 5 -7 11 1 21 15 18 29 18 29 0z m341 -9 c-10 -9 -11
-8 -5 6 3 10 9 15 12 12 3 -3 0 -11 -7 -18z m1159 -12 c0 -5 -5 -3 -10 5 -5 8
-10 20 -10 25 0 6 5 3 10 -5 5 -8 10 -19 10 -25z m-1610 1 c0 -8 8 -17 17 -20
13 -5 14 -9 4 -19 -10 -9 -15 -8 -27 7 -16 23 -18 46 -4 46 6 0 10 -6 10 -14z
m314 -2 c3 -8 2 -12 -4 -9 -6 3 -10 10 -10 16 0 14 7 11 14 -7z m483 10 c-3
-3 -12 -4 -19 -1 -8 3 -5 6 6 6 11 1 17 -2 13 -5z m-137 -56 c0 -10 -4 -18
-10 -18 -5 0 -10 9 -10 21 0 11 -4 18 -9 15 -5 -4 -7 3 -4 14 5 19 6 20 19 3
7 -10 14 -26 14 -35z m1168 30 c-8 -12 -21 -24 -29 -27 -8 -2 -3 8 11 22 31
33 37 34 18 5z m-1652 3 c-4 -5 -1 -11 6 -13 6 -2 12 -14 13 -26 1 -17 -4 -22
-21 -22 -12 0 -25 -6 -28 -12 -3 -9 -8 -8 -16 5 -6 9 -16 17 -23 17 -7 0 -12
11 -12 25 0 14 3 25 6 25 8 0 22 -29 28 -56 0 -3 7 1 15 9 9 8 12 24 9 36 -4
15 -1 21 11 21 10 0 15 -4 12 -9z m244 0 c0 -5 -7 -12 -16 -15 -22 -9 -24 -8
-24 9 0 8 9 15 20 15 11 0 20 -4 20 -9z m-50 -16 c0 -8 -7 -15 -15 -15 -26 0
-18 20 13 29 1 1 2 -6 2 -14z m377 -7 c-3 -8 -6 -5 -6 6 -1 11 2 17 5 13 3 -3
4 -12 1 -19z m283 -32 c-7 -7 -10 1 -9 25 0 32 1 33 10 10 6 -16 6 -28 -1 -35z
m-960 23 c0 -5 -7 -9 -15 -9 -9 0 -12 6 -9 15 6 15 24 11 24 -6z m1019 -23 c1
-6 -5 -1 -13 9 -8 11 -12 24 -8 29 5 9 20 -17 21 -38z m218 22 c-3 -8 -6 -5
-6 6 -1 11 2 17 5 13 3 -3 4 -12 1 -19z m193 13 c0 -5 -8 -19 -18 -31 -16 -19
-19 -20 -30 -7 -11 13 -10 15 6 10 14 -3 22 1 27 16 6 21 15 28 15 12z m117
-13 c-3 -8 -6 -5 -6 6 -1 11 2 17 5 13 3 -3 4 -12 1 -19z m-1160 -50 c-2 -13
-4 -3 -4 22 0 25 2 35 4 23 2 -13 2 -33 0 -45z m-37 22 c-30 -23 -37 -24 -37
-6 0 8 6 12 12 10 7 -3 18 2 25 11 7 8 16 13 19 10 3 -4 -5 -15 -19 -25z
m-185 -17 c-8 -7 -17 -13 -20 -13 -12 0 -43 -44 -38 -53 3 -4 16 -1 29 7 20
14 23 14 18 1 -5 -12 -1 -13 27 -3 19 6 35 11 36 12 1 1 -6 10 -14 21 -12 16
-14 16 -10 3 8 -22 -12 -35 -24 -17 -13 20 -11 29 7 36 15 6 54 -27 54 -47 0
-5 5 -10 10 -10 6 0 9 -5 8 -12 -2 -7 4 -12 12 -13 8 -1 14 -7 12 -14 -1 -7 2
-10 7 -7 5 3 15 -2 22 -11 12 -14 12 -16 -1 -9 -8 4 -7 1 3 -7 10 -9 25 -24
34 -34 8 -10 11 -11 7 -3 -4 8 5 4 19 -9 29 -27 37 -71 12 -71 -8 0 -15 5 -15
12 0 9 -3 9 -12 0 -14 -14 -7 -23 21 -25 11 -1 21 -6 21 -12 0 -5 4 -4 9 4 5
7 7 21 6 30 -1 9 0 10 2 4 3 -7 12 -13 20 -13 10 0 -2 -18 -33 -50 -27 -28
-48 -55 -47 -59 1 -5 -7 -11 -18 -14 -19 -5 -20 -4 -5 12 22 24 20 34 -5 21
-28 -15 -53 4 -39 30 15 27 13 31 -12 25 -18 -4 -28 2 -46 30 -12 20 -20 40
-17 45 4 6 -3 10 -14 10 -22 0 -40 20 -19 21 9 0 9 2 -2 6 -8 4 -20 12 -28 19
-13 14 -46 8 -37 -6 3 -4 -3 -11 -12 -14 -17 -7 -33 9 -33 32 0 15 39 32 59
24 11 -4 11 -1 2 16 -13 24 -27 28 -33 10 -3 -7 -7 -6 -11 5 -3 9 -2 17 4 17
6 0 6 7 1 18 -6 12 -4 22 9 34 9 9 20 14 22 11 3 -2 14 1 26 8 16 11 18 16 8
28 -10 12 -9 12 9 1 18 -11 20 -16 9 -27z m1290 16 c-4 -5 -12 -9 -18 -8 -9 0
-8 2 1 6 6 2 9 10 6 15 -4 7 -2 8 5 4 6 -4 9 -12 6 -17z m265 18 c0 -2 -8 -11
-18 -20 -15 -14 -19 -15 -19 -2 0 8 4 12 8 9 4 -2 10 0 14 6 6 10 15 14 15 7z
m-1424 -25 c-13 -13 18 -31 42 -25 18 4 23 2 18 -6 -4 -6 -12 -8 -18 -5 -7 4
-8 -2 -3 -16 7 -23 7 -23 -18 2 -13 13 -30 34 -36 46 -10 18 -9 21 4 16 9 -4
13 -9 11 -12z m294 -7 c0 -7 -7 -15 -15 -19 -8 -3 -15 -10 -15 -16 0 -6 5 -8
10 -5 14 9 12 -4 -3 -19 -10 -11 -15 -10 -25 1 -8 7 -8 13 -2 13 14 0 13 27
-2 33 -10 3 -10 7 0 19 14 18 52 13 52 -7z m180 15 c0 -5 -5 -10 -11 -10 -5 0
-7 5 -4 10 3 6 8 10 11 10 2 0 4 -4 4 -10z m241 -15 c5 4 9 2 9 -4 0 -6 -10
-15 -21 -22 -17 -9 -20 -8 -13 3 5 7 8 22 7 33 -1 16 -1 17 3 2 3 -9 10 -15
15 -12z m189 15 c13 -9 13 -10 0 -10 -12 0 -12 -2 -2 -8 8 -6 2 -9 -17 -9 -31
0 -33 16 -3 18 14 0 13 2 -3 9 -13 6 -15 9 -5 9 8 0 22 -4 30 -9z m31 -13
c-10 -9 -11 -8 -5 6 3 10 9 15 12 12 3 -3 0 -11 -7 -18z m-450 -10 c-10 -9
-11 -8 -5 6 3 10 9 15 12 12 3 -3 0 -11 -7 -18z m534 -4 c-3 -16 -10 -32 -15
-37 -5 -5 -4 7 2 27 13 43 23 50 13 10z m-600 1 c-16 -8 -31 -17 -33 -19 -6
-5 30 -41 48 -48 13 -5 13 -5 0 -6 -25 -1 -52 26 -56 54 -2 20 1 25 12 21 8
-3 14 -1 14 4 0 6 10 10 23 10 20 0 19 -2 -8 -16z m242 0 c-3 -3 -12 -4 -19
-1 -8 3 -5 6 6 6 11 1 17 -2 13 -5z m707 -2 c3 -5 -1 -9 -9 -9 -8 0 -12 4 -9
9 3 4 7 8 9 8 2 0 6 -4 9 -8z m-914 -12 c-8 -5 -22 -9 -30 -9 -10 0 -8 3 5 9
27 12 43 12 25 0z m-328 -71 c5 -3 8 -10 7 -15 -4 -24 3 -31 31 -28 25 3 33
-1 42 -21 9 -19 9 -28 0 -37 -9 -9 -7 -17 10 -35 12 -13 19 -23 16 -23 -2 0
-19 16 -37 36 -23 25 -28 34 -15 32 9 -2 19 3 22 11 3 8 0 11 -7 7 -7 -5 -9
-1 -5 8 8 21 -6 20 -21 -1 -11 -15 -15 -15 -29 -4 -9 7 -16 19 -16 26 0 6 -11
17 -25 23 -14 6 -25 17 -25 23 0 7 8 5 20 -6 11 -10 20 -13 20 -8 0 17 -26 34
-44 27 -9 -3 -16 -1 -16 5 0 6 7 11 15 11 8 0 15 6 15 12 0 7 8 1 17 -12 9
-14 21 -28 25 -31z m1156 39 c8 -10 4 -13 -13 -14 -19 -2 -21 1 -12 12 15 16
13 16 25 2z m62 9 c0 -2 -12 -14 -27 -28 l-28 -24 24 28 c23 25 31 32 31 24z
m-982 -23 c6 3 13 2 16 -3 3 -5 -1 -12 -10 -15 -27 -10 -34 -7 -34 17 0 16 3
18 9 8 5 -7 13 -11 19 -7z m297 6 c3 -5 1 -10 -4 -10 -6 0 -11 5 -11 10 0 6 2
10 4 10 3 0 8 -4 11 -10z m-918 -47 c-11 -10 -27 8 -27 30 l0 21 16 -22 c9
-13 14 -26 11 -29z m796 40 c-7 -2 -21 -2 -30 0 -10 3 -4 5 12 5 17 0 24 -2
18 -5z m210 0 c-7 -2 -21 -2 -30 0 -10 3 -4 5 12 5 17 0 24 -2 18 -5z m150 0
c-24 -2 -62 -2 -85 0 -24 2 -5 4 42 4 47 0 66 -2 43 -4z m117 3 c0 -2 -7 -6
-15 -10 -8 -3 -15 -1 -15 4 0 6 7 10 15 10 8 0 15 -2 15 -4z m-403 -22 c-3 -3
-12 -4 -19 -1 -8 3 -5 6 6 6 11 1 17 -2 13 -5z m160 0 c-3 -3 -12 -4 -19 -1
-8 3 -5 6 6 6 11 1 17 -2 13 -5z m-367 -8 c0 -3 -4 -8 -10 -11 -5 -3 -10 -1
-10 4 0 6 5 11 10 11 6 0 10 -2 10 -4z m47 -2 c-3 -3 -12 -4 -19 -1 -8 3 -5 6
6 6 11 1 17 -2 13 -5z m-257 -14 c0 -5 -4 -10 -10 -10 -5 0 -10 5 -10 10 0 6
5 10 10 10 6 0 10 -4 10 -10z m367 4 c-3 -3 -12 -4 -19 -1 -8 3 -5 6 6 6 11 1
17 -2 13 -5z m143 -4 c-8 -5 -19 -10 -25 -10 -5 0 -3 5 5 10 8 5 20 10 25 10
6 0 3 -5 -5 -10z m-263 -6 c-3 -3 -12 -4 -19 -1 -8 3 -5 6 6 6 11 1 17 -2 13
-5z m680 0 c-3 -3 -12 -4 -19 -1 -8 3 -5 6 6 6 11 1 17 -2 13 -5z m-870 -10
c-3 -3 -12 -4 -19 -1 -8 3 -5 6 6 6 11 1 17 -2 13 -5z m963 -48 c0 -2 -8 -10
-17 -17 -16 -13 -17 -12 -4 4 13 16 21 21 21 13z m-1614 -63 c-10 -10 -19 5
-10 18 6 11 8 11 12 0 2 -7 1 -15 -2 -18z m690 6 c0 -10 -2 -16 -5 -14 -2 3
-12 -2 -21 -10 -14 -13 -16 -12 -14 13 2 33 0 31 22 29 10 0 18 -9 18 -18z
m-401 -19 c18 0 87 -65 78 -74 -11 -11 -41 -7 -46 7 -3 7 -6 5 -6 -5 -1 -10
-4 -18 -9 -18 -10 0 -36 31 -45 53 -4 10 -12 14 -22 11 -8 -3 -15 -2 -15 3 0
16 24 34 38 28 8 -3 20 -5 27 -5z m315 -90 c0 -12 41 -50 49 -46 4 3 8 -1 8
-9 0 -9 -10 -15 -23 -15 -14 0 -25 -8 -29 -20 -3 -11 -13 -20 -21 -20 -8 0
-12 -5 -9 -10 4 -6 1 -18 -7 -27 -11 -14 -11 -15 2 -8 8 6 22 10 30 11 21 1
50 15 50 24 0 4 -11 5 -25 2 -20 -3 -24 -1 -19 12 3 9 11 16 18 17 6 1 20 2
31 3 11 0 19 7 18 14 -4 17 1 15 23 -9 10 -11 14 -19 9 -17 -6 2 -10 -1 -10
-7 0 -5 5 -9 11 -7 14 3 27 -25 15 -32 -15 -10 -147 -36 -203 -40 -50 -4 -58
-2 -63 15 -4 10 -11 19 -16 19 -12 0 -12 -17 1 -25 24 -15 -6 -40 -63 -50 -29
-6 -37 -3 -46 14 -10 18 -7 26 20 56 18 19 42 35 54 35 29 0 37 10 23 27 -15
18 7 36 35 29 15 -4 17 0 12 25 -4 18 -3 29 4 29 6 0 11 9 11 19 0 11 12 28
27 39 l28 20 27 -31 c16 -17 28 -33 28 -37z m-350 10 c0 -5 -4 -10 -10 -10 -5
0 -10 5 -10 10 0 6 5 10 10 10 6 0 10 -4 10 -10z m91 -24 c0 5 4 0 9 -11 7
-17 9 -17 9 -2 1 9 8 17 16 17 19 0 19 -2 -5 -45 -11 -19 -15 -35 -9 -35 6 0
9 -8 7 -17 -2 -10 -12 -18 -23 -18 -12 0 -21 -9 -25 -23 -7 -34 -25 -27 -27
11 -2 17 -5 48 -9 68 -7 43 18 78 42 58 8 -6 14 -8 15 -3z m290 -3 c13 -16 12
-17 -3 -4 -10 7 -18 15 -18 17 0 8 8 3 21 -13z m-741 -29 c0 -8 -4 -12 -10 -9
-5 3 -10 10 -10 16 0 5 5 9 10 9 6 0 10 -7 10 -16z m360 -49 c12 -35 7 -55
-12 -55 -6 0 -8 9 -5 20 3 11 2 20 -3 20 -10 0 -21 41 -14 52 9 14 22 0 34
-37z m551 18 c13 -16 12 -17 -3 -4 -10 7 -18 15 -18 17 0 8 8 3 21 -13z m-553
-108 c-3 -3 -9 2 -12 12 -6 14 -5 15 5 6 7 -7 10 -15 7 -18z m840 -16 c-2 -6
-8 -10 -13 -10 -5 0 -11 4 -13 10 -2 6 4 11 13 11 9 0 15 -5 13 -11z"/>
<path d="M2765 2200 c3 -5 10 -10 16 -10 5 0 9 5 9 10 0 6 -7 10 -16 10 -8 0
-12 -4 -9 -10z"/>
<path d="M2850 2115 c0 -16 16 -20 24 -6 3 5 -1 11 -9 15 -9 3 -15 0 -15 -9z"/>
<path d="M2985 2000 c3 -5 11 -10 16 -10 6 0 7 5 4 10 -3 6 -11 10 -16 10 -6
0 -7 -4 -4 -10z"/>
<path d="M3046 1932 c-2 -4 4 -8 14 -8 10 0 16 4 14 8 -3 4 -9 8 -14 8 -5 0
-11 -4 -14 -8z"/>
<path d="M2960 1890 c0 -5 7 -10 15 -10 8 0 15 5 15 10 0 6 -7 10 -15 10 -8 0
-15 -4 -15 -10z"/>
<path d="M3114 1859 c-4 -7 -3 -9 4 -5 6 3 15 -2 21 -11 6 -10 11 -13 11 -7 0
20 -27 37 -36 23z"/>
<path d="M2960 1850 c0 -5 9 -10 21 -10 11 0 17 5 14 10 -3 6 -13 10 -21 10
-8 0 -14 -4 -14 -10z"/>
<path d="M2960 1820 c0 -5 16 -10 35 -10 19 0 35 5 35 10 0 6 -16 10 -35 10
-19 0 -35 -4 -35 -10z"/>
<path d="M2960 1780 c0 -5 16 -10 35 -10 19 0 35 5 35 10 0 6 -16 10 -35 10
-19 0 -35 -4 -35 -10z"/>
<path d="M3283 1685 c-3 -9 -3 -18 -1 -21 3 -3 8 4 11 16 6 23 -1 27 -10 5z"/>
<path d="M3143 1663 c-28 -5 -31 -23 -4 -23 10 0 21 7 25 15 3 8 4 14 3 14 -1
-1 -12 -4 -24 -6z"/>
<path d="M3464 1489 c-3 -6 1 -18 10 -27 16 -16 18 -16 28 2 8 15 12 16 19 5
6 -9 9 -10 9 -2 0 17 -23 29 -28 15 -2 -7 -8 -12 -14 -12 -6 0 -8 7 -4 15 6
17 -9 21 -20 4z"/>
<path d="M3320 1475 c0 -19 40 -35 86 -35 24 0 34 4 31 13 -2 7 -18 11 -40 9
-28 -3 -37 0 -37 12 0 9 -8 16 -20 16 -11 0 -20 -7 -20 -15z"/>
<path d="M3445 1465 c10 -25 10 -43 0 -77 -6 -25 -4 -28 15 -28 21 0 22 4 17
39 -3 22 -13 50 -22 63 -14 19 -16 19 -10 3z"/>
<path d="M3560 1380 c0 -5 7 -10 16 -10 8 0 12 5 9 10 -3 6 -10 10 -16 10 -5
0 -9 -4 -9 -10z"/>
<path d="M1973 1973 c-15 -5 -17 -23 -4 -23 5 0 11 7 15 15 3 8 4 15 3 14 -1
0 -8 -3 -14 -6z"/>
<path d="M1646 1709 c-25 -25 -11 -25 21 1 14 11 19 20 12 19 -8 0 -23 -9 -33
-20z"/>
<path d="M1568 1645 c-21 -19 -34 -35 -30 -35 5 0 19 12 33 26 13 14 33 30 44
34 13 6 15 9 5 9 -8 0 -32 -15 -52 -34z"/>
<path d="M1680 1666 c0 -7 -10 -18 -22 -24 -31 -15 -1 -16 40 -1 34 12 35 23
2 32 -12 3 -20 0 -20 -7z"/>
<path d="M1599 1648 c-1 -2 -3 -13 -4 -25 -2 -17 3 -23 17 -23 18 0 18 1 4 16
-20 20 -20 28 -1 20 8 -3 15 -1 15 4 0 9 -28 15 -31 8z"/>
<path d="M1506 1602 c-2 -4 -1 -14 4 -22 7 -11 9 -9 7 8 -1 24 -3 26 -11 14z"/>
<path d="M1645 1580 c-4 -6 3 -10 14 -10 25 0 27 6 6 13 -8 4 -17 2 -20 -3z"/>
<path d="M1469 1564 c-12 -15 -11 -16 8 -10 12 4 24 2 28 -4 3 -6 11 -8 16 -5
5 3 6 -1 3 -9 -4 -11 0 -16 15 -16 22 0 28 14 11 25 -6 4 -8 10 -5 15 3 4 -4
6 -15 3 -11 -3 -26 0 -34 6 -10 9 -17 7 -27 -5z"/>
<path d="M1417 1528 c-15 -11 -27 -24 -27 -30 0 -6 9 -3 19 6 15 14 20 15 24
4 2 -7 3 -5 1 5 -2 13 3 16 14 13 9 -3 24 -1 32 5 12 9 11 10 -4 5 -11 -4 -22
-2 -25 3 -4 5 -18 1 -34 -11z"/>
<path d="M1600 1546 c0 -9 30 -14 35 -6 4 6 -3 10 -14 10 -12 0 -21 -2 -21 -4z"/>
<path d="M1630 1505 c0 -8 5 -15 10 -15 6 0 10 7 10 15 0 8 -4 15 -10 15 -5 0
-10 -7 -10 -15z"/>
<path d="M1366 1454 c-22 -21 -20 -27 4 -12 11 7 20 16 20 20 0 12 -7 10 -24
-8z"/>
<path d="M1690 1400 c0 -33 -3 -40 -20 -40 -11 0 -20 -4 -20 -10 0 -5 7 -10
15 -10 8 0 15 -4 15 -10 0 -5 18 -10 40 -10 33 0 40 3 40 20 0 11 -7 20 -15
20 -11 0 -15 11 -15 40 0 33 -3 40 -20 40 -17 0 -20 -7 -20 -40z"/>
<path d="M1348 1404 c-4 -6 2 -21 13 -32 25 -27 29 -27 22 -2 -3 11 -9 18 -13
15 -5 -3 -10 3 -12 12 -2 11 -6 14 -10 7z"/>
<path d="M1540 1350 c0 -5 5 -10 10 -10 6 0 10 5 10 10 0 6 -4 10 -10 10 -5 0
-10 -4 -10 -10z"/>
<path d="M1423 1335 c-10 -10 -9 -16 1 -24 11 -9 14 -6 14 14 0 14 -1 25 -2
25 0 -1 -6 -7 -13 -15z"/>
<path d="M1538 1289 c-2 -6 -15 -12 -28 -13 -31 -1 -35 -18 -10 -41 16 -15 21
-16 18 -5 -2 10 3 14 15 12 10 -2 17 3 17 12 0 8 3 21 6 30 3 9 2 16 -4 16 -6
0 -12 -5 -14 -11z m-28 -29 c0 -5 -4 -10 -10 -10 -5 0 -10 5 -10 10 0 6 5 10
10 10 6 0 10 -4 10 -10z"/>
<path d="M2850 1751 c0 -5 5 -13 10 -16 6 -3 10 -2 10 4 0 5 -4 13 -10 16 -5
3 -10 2 -10 -4z"/>
<path d="M1980 1456 c0 -9 5 -16 10 -16 6 0 10 4 10 9 0 6 -4 13 -10 16 -5 3
-10 -1 -10 -9z"/>
<path d="M2145 1460 c-4 -6 -6 -23 -5 -38 3 -43 1 -50 -17 -55 -15 -4 -14 -5
2 -6 25 -1 61 67 45 83 -7 7 -10 3 -11 -9 0 -12 -3 -15 -6 -7 -3 7 1 19 7 27
8 10 9 15 2 15 -6 0 -14 -5 -17 -10z"/>
<path d="M1890 1110 c0 -5 7 -7 15 -4 8 4 15 8 15 10 0 2 -7 4 -15 4 -8 0 -15
-4 -15 -10z"/>
<path d="M1800 1056 c0 -9 5 -16 10 -16 6 0 10 4 10 9 0 6 -4 13 -10 16 -5 3
-10 -1 -10 -9z"/>
<path d="M2000 1056 c0 -9 5 -16 10 -16 6 0 10 4 10 9 0 6 -4 13 -10 16 -5 3
-10 -1 -10 -9z"/>
<path d="M1885 980 c-3 -5 -1 -10 4 -10 6 0 11 5 11 10 0 6 -2 10 -4 10 -3 0
-8 -4 -11 -10z"/>
<path d="M1814 922 c-9 -5 -8 -10 1 -19 11 -10 13 -9 12 7 -1 11 -1 20 -2 20
0 0 -5 -4 -11 -8z"/>
<path d="M1562 1164 c17 -17 38 -12 38 9 0 8 -3 8 -9 -2 -6 -9 -11 -10 -15 -2
-4 6 -12 11 -19 11 -7 0 -5 -7 5 -16z"/>
<path d="M1602 1158 c-17 -17 -15 -28 5 -28 9 0 14 -3 10 -6 -6 -6 45 -54 57
-54 3 0 6 12 6 26 0 17 -10 36 -27 50 -32 28 -35 28 -51 12z m63 -49 c12 -18
-3 -22 -20 -5 -14 14 -14 16 -1 16 8 0 18 -5 21 -11z"/>
<path d="M2100 1028 c0 -12 1 -19 3 -17 1 2 9 12 16 22 12 14 11 17 -3 17 -10
0 -16 -8 -16 -22z"/>
<path d="M1775 691 c-7 -12 12 -24 25 -16 11 7 4 25 -10 25 -5 0 -11 -4 -15
-9z"/>
<path d="M2090 620 c0 -5 5 -10 10 -10 6 0 10 5 10 10 0 6 -4 10 -10 10 -5 0
-10 -4 -10 -10z"/>
<path d="M2200 540 c0 -5 5 -10 10 -10 6 0 10 5 10 10 0 6 -4 10 -10 10 -5 0
-10 -4 -10 -10z"/>
<path d="M2055 263 c-4 -11 0 -11 18 -2 31 16 32 18 8 16 -11 -1 -23 -7 -26
-14z"/>
<path d="M2061 2166 c-10 -12 -8 -13 9 -9 25 7 37 23 17 23 -8 0 -20 -6 -26
-14z"/>
<path d="M2016 2124 c-5 -14 -4 -15 9 -4 17 14 19 20 6 20 -5 0 -12 -7 -15
-16z"/>
<path d="M1902 2040 c-42 -30 -57 -50 -24 -30 24 14 78 60 71 60 -3 0 -25 -14
-47 -30z"/>
<path d="M1810 1962 l-35 -34 32 21 c31 21 49 40 42 45 -2 1 -20 -13 -39 -32z"/>
<path d="M1700 1879 l-45 -41 42 32 c37 27 61 51 51 50 -2 0 -23 -19 -48 -41z"/>
<path d="M1488 1713 c-18 -15 -37 -33 -41 -41 -5 -7 -13 -9 -19 -6 -7 4 -8 2
-4 -5 7 -11 23 1 101 70 23 22 -7 6 -37 -18z"/>
<path d="M1277 1544 c-15 -13 -24 -24 -20 -24 11 1 57 40 52 44 -2 3 -17 -7
-32 -20z"/>
<path d="M3630 1475 c13 -14 26 -25 28 -25 3 0 -5 11 -18 25 -13 14 -26 25
-28 25 -3 0 5 -11 18 -25z"/>
<path d="M3690 1416 c0 -2 8 -10 18 -17 15 -13 16 -12 3 4 -13 16 -21 21 -21
13z"/>
<path d="M1260 1172 c0 -5 7 -9 15 -9 8 0 12 4 9 9 -3 4 -9 8 -15 8 -5 0 -9
-4 -9 -8z"/>
<path d="M868 1088 c15 -15 49 -20 57 -9 3 5 -6 8 -20 6 -14 -1 -25 2 -25 6 0
5 -5 9 -12 9 -9 0 -9 -3 0 -12z"/>
<path d="M1174 1066 c-11 -6 -19 -17 -16 -24 3 -10 -3 -13 -33 -12 -3 0 -21
-6 -40 -14 -19 -8 -36 -13 -36 -10 -1 2 -2 9 -3 15 -1 15 -76 42 -76 28 0 -5
7 -9 15 -9 9 0 12 -6 8 -16 -3 -8 -12 -13 -20 -10 -8 3 -11 1 -8 -4 3 -6 13
-10 21 -10 8 0 14 -4 14 -10 0 -5 13 -10 29 -10 17 0 33 -5 37 -12 5 -7 3 -8
-6 -3 -10 6 -12 2 -7 -16 4 -13 7 -31 7 -39 0 -9 3 -11 8 -4 12 17 39 23 51
11 8 -8 11 -7 11 5 0 9 -6 19 -12 21 -7 3 -3 6 8 6 12 1 24 8 28 16 3 8 13 15
23 15 13 0 14 3 5 12 -16 16 4 38 36 38 24 0 24 1 9 18 -10 10 -14 22 -10 25
10 11 -20 6 -43 -7z m-59 -65 c-5 -16 -2 -18 15 -14 11 3 20 0 20 -6 0 -14
-37 -15 -45 -1 -7 12 0 40 10 40 4 0 4 -9 0 -19z"/>
<path d="M1298 1013 c7 -3 16 -2 19 1 4 3 -2 6 -13 5 -11 0 -14 -3 -6 -6z"/>
<path d="M955 980 c-3 -5 -1 -10 4 -10 6 0 11 5 11 10 0 6 -2 10 -4 10 -3 0
-8 -4 -11 -10z"/>
<path d="M1225 970 c3 -5 11 -10 16 -10 6 0 7 5 4 10 -3 6 -11 10 -16 10 -6 0
-7 -4 -4 -10z"/>
<path d="M1522 886 c-16 -36 -15 -41 4 -22 8 9 14 24 12 33 -2 13 -6 10 -16
-11z"/>
<path d="M1135 891 c3 -5 1 -12 -5 -16 -19 -12 -11 -26 10 -15 19 10 18 40 -2
40 -5 0 -7 -4 -3 -9z"/>
<path d="M1335 890 c4 -6 -1 -23 -10 -37 -17 -26 -17 -26 9 -21 20 4 26 2 22
-7 -4 -11 13 -25 29 -25 1 0 5 14 9 32 4 22 1 37 -10 50 -18 19 -60 26 -49 8z"/>
<path d="M1201 828 c1 -7 -3 -26 -9 -41 -7 -16 -12 -29 -12 -30 0 -1 13 -2 29
-2 19 0 27 4 24 13 -3 6 1 12 7 12 9 0 8 6 -3 18 -10 10 -17 24 -17 30 0 7 -5
12 -10 12 -6 0 -10 -6 -9 -12z m19 -48 c0 -5 -4 -10 -10 -10 -5 0 -10 5 -10
10 0 6 5 10 10 10 6 0 10 -4 10 -10z"/>
<path d="M1311 804 c0 -11 3 -14 6 -6 3 7 2 16 -1 19 -3 4 -6 -2 -5 -13z"/>
<path d="M1120 766 c0 -2 7 -7 16 -10 8 -3 12 -2 9 4 -6 10 -25 14 -25 6z"/>
<path d="M1067 740 c-3 -13 0 -20 10 -20 8 0 11 5 8 10 -3 6 -2 10 4 10 5 0
13 -4 16 -10 3 -5 21 -10 38 -10 l32 1 -39 19 c-50 25 -62 25 -69 0z"/>
<path d="M1320 740 c0 -5 5 -10 11 -10 5 0 7 5 4 10 -3 6 -8 10 -11 10 -2 0
-4 -4 -4 -10z"/>
<path d="M1385 740 c3 -5 14 -10 23 -10 15 0 15 2 2 10 -20 13 -33 13 -25 0z"/>
<path d="M1436 743 c-2 -3 4 -15 15 -26 13 -14 18 -30 14 -44 -5 -20 -2 -23
25 -23 30 0 37 13 21 38 -4 7 -14 12 -22 10 -8 -2 -14 2 -13 7 1 13 -32 45
-40 38z"/>
<path d="M908 713 c6 -2 18 -2 25 0 6 3 1 5 -13 5 -14 0 -19 -2 -12 -5z"/>
<path d="M1178 703 c7 -3 16 -2 19 1 4 3 -2 6 -13 5 -11 0 -14 -3 -6 -6z"/>
<path d="M1217 689 c7 -7 15 -10 18 -7 3 3 -2 9 -12 12 -14 6 -15 5 -6 -5z"/>
<path d="M586 631 c-10 -11 -16 -26 -13 -33 4 -10 6 -10 6 1 1 8 8 23 18 33 9
10 14 18 11 18 -3 0 -13 -9 -22 -19z"/>
<path d="M1325 630 c3 -5 10 -10 16 -10 5 0 9 5 9 10 0 6 -7 10 -16 10 -8 0
-12 -4 -9 -10z"/>
<path d="M280 605 c14 -17 36 -20 44 -6 4 5 -3 7 -14 4 -11 -3 -20 0 -20 6 0
6 -5 11 -11 11 -8 0 -8 -5 1 -15z"/>
<path d="M745 610 c3 -5 8 -10 11 -10 2 0 4 5 4 10 0 6 -5 10 -11 10 -5 0 -7
-4 -4 -10z"/>
<path d="M1041 599 c11 -11 24 -17 27 -13 4 3 1 9 -6 11 -6 3 -10 9 -6 14 3 5
-4 9 -15 9 l-21 0 21 -21z"/>
<path d="M1410 586 c0 -2 7 -6 15 -10 8 -3 15 -1 15 4 0 6 -7 10 -15 10 -8 0
-15 -2 -15 -4z"/>
<path d="M380 570 c0 -5 7 -10 16 -10 8 0 12 5 9 10 -3 6 -10 10 -16 10 -5 0
-9 -4 -9 -10z"/>
<path d="M338 563 c6 -2 18 -2 25 0 6 3 1 5 -13 5 -14 0 -19 -2 -12 -5z"/>
<path d="M935 560 c-3 -5 -16 -10 -29 -10 -29 0 -35 -6 -29 -31 7 -26 23 -24
23 4 1 20 2 21 14 5 14 -19 32 -25 21 -8 -3 6 1 13 9 16 9 3 16 12 16 20 0 16
-16 19 -25 4z"/>
<path d="M970 566 c0 -2 7 -7 16 -10 8 -3 12 -2 9 4 -6 10 -25 14 -25 6z"/>
<path d="M287 538 c-9 -31 -2 -33 17 -3 13 20 14 25 2 25 -7 0 -16 -10 -19
-22z"/>
<path d="M4 539 c-8 -13 2 -22 26 -24 24 -2 24 -3 0 17 -12 11 -22 13 -26 7z"/>
<path d="M360 540 c0 -5 5 -10 10 -10 6 0 10 5 10 10 0 6 -4 10 -10 10 -5 0
-10 -4 -10 -10z"/>
<path d="M160 511 c0 -5 12 -11 27 -14 26 -5 26 -4 8 9 -22 16 -35 18 -35 5z"/>
<path d="M310 510 c0 -5 5 -10 11 -10 5 0 7 5 4 10 -3 6 -8 10 -11 10 -2 0 -4
-4 -4 -10z"/>
<path d="M1093 455 c-14 -16 -7 -25 21 -25 12 0 16 3 10 8 -6 4 -13 12 -15 19
-3 8 -7 7 -16 -2z"/>
<path d="M618 442 c-16 -6 -16 -9 -1 -39 17 -37 25 -40 43 -18 10 13 10 19 -4
33 -9 10 -13 22 -9 25 8 9 -6 8 -29 -1z"/>
<path d="M206 375 c-11 -8 -16 -21 -13 -29 5 -13 11 -14 31 -5 21 10 23 15 15
30 -11 22 -9 22 -33 4z m24 -5 c0 -5 -5 -10 -11 -10 -5 0 -7 5 -4 10 3 6 8 10
11 10 2 0 4 -4 4 -10z"/>
<path d="M1645 380 c3 -5 12 -7 20 -3 21 7 19 13 -6 13 -11 0 -18 -4 -14 -10z"/>
<path d="M10 356 c0 -2 7 -7 16 -10 8 -3 12 -2 9 4 -6 10 -25 14 -25 6z"/>
<path d="M635 350 c3 -5 8 -10 11 -10 2 0 4 5 4 10 0 6 -5 10 -11 10 -5 0 -7
-4 -4 -10z"/>
<path d="M547 281 c-4 -17 -3 -21 5 -13 5 5 8 16 6 23 -3 8 -7 3 -11 -10z"/>
<path d="M3875 280 c-3 -5 -1 -10 4 -10 6 0 11 5 11 10 0 6 -2 10 -4 10 -3 0
-8 -4 -11 -10z"/>
<path d="M740 180 c0 -11 5 -20 10 -20 6 0 10 9 10 20 0 11 -4 20 -10 20 -5 0
-10 -9 -10 -20z"/>
<path d="M1067 193 c-4 -3 -7 -11 -7 -17 0 -6 5 -5 12 2 6 6 9 14 7 17 -3 3
-9 2 -12 -2z"/>
<path d="M707 166 c15 -26 155 -167 161 -162 3 3 -27 37 -66 76 -40 38 -72 74
-72 79 0 5 -7 12 -15 15 -12 4 -14 2 -8 -8z"/>
<path d="M462 156 c-19 -6 -31 -15 -28 -22 3 -7 0 -15 -7 -18 -7 -2 -4 -5 6
-5 9 -1 17 -6 17 -12 0 -5 5 -7 11 -3 8 4 7 9 -2 15 -7 4 -10 11 -6 15 3 4 14
1 22 -6 14 -11 17 -10 22 9 3 12 12 20 21 19 8 -2 17 3 19 10 6 14 -27 14 -75
-2z"/>
<path d="M3933 158 l-52 -9 6 -67 c3 -37 9 -71 13 -75 4 -5 28 -5 54 -2 l46 7
0 79 c0 44 -3 78 -7 78 -5 -1 -31 -6 -60 -11z"/>
<path d="M830 151 c0 -6 4 -13 10 -16 6 -3 7 1 4 9 -7 18 -14 21 -14 7z"/>
<path d="M910 150 c0 -5 5 -10 10 -10 6 0 10 5 10 10 0 6 -4 10 -10 10 -5 0
-10 -4 -10 -10z"/>
<path d="M378 113 c-20 -5 -20 -9 -8 -38 7 -18 8 -19 15 -2 4 9 15 17 24 18
10 0 11 2 3 6 -6 2 -10 9 -6 14 5 9 1 10 -28 2z"/>
<path d="M605 110 c-3 -6 1 -7 9 -4 18 7 21 14 7 14 -6 0 -13 -4 -16 -10z"/>
<path d="M560 58 c0 -19 2 -20 10 -8 13 19 13 30 0 30 -5 0 -10 -10 -10 -22z"/>
<path d="M3425 65 c-5 -2 -36 -9 -67 -15 -47 -9 -58 -15 -58 -31 0 -17 8 -19
80 -19 l80 0 0 35 c0 33 -8 40 -35 30z"/>
<path d="M0 37 c0 -19 16 -31 24 -18 3 5 -1 14 -9 21 -12 10 -15 10 -15 -3z"/>
<path d="M635 20 c-3 -6 1 -7 9 -4 18 7 21 14 7 14 -6 0 -13 -4 -16 -10z"/>
<path d="M573 3 c9 -2 25 -2 35 0 9 3 1 5 -18 5 -19 0 -27 -2 -17 -5z"/>
</g>
</svg>
